<svg width="30" height="29" viewBox="0 0 30 29" fill="none" xmlns="http://www.w3.org/2000/svg">
<path d="M17.4819 6.6416L17.6929 7.10352L18.1519 6.88477L23.5464 4.31445L21.9526 10.0742L21.8169 10.5645L22.3091 10.6924L28.0942 12.1904L23.1704 15.5791L22.7515 15.8672L23.0474 16.2803L26.5142 21.1475L20.5659 20.5781L20.0601 20.5293L20.02 21.0361L19.5474 26.9941L15.3569 22.7334L15.0005 22.3711L14.644 22.7334L10.4526 26.9941L9.98096 21.0361L9.94092 20.5293L9.43506 20.5781L3.48584 21.1475L6.95459 16.2803L7.24951 15.8672L6.83057 15.5791L1.90576 12.1904L7.69189 10.6924L8.18408 10.5645L8.04834 10.0742L6.45361 4.31445L11.8491 6.88477L12.3081 7.10352L12.519 6.6416L15.0005 1.2041L17.4819 6.6416Z" stroke="white"/>
</svg>
