<svg width="420" height="430" viewBox="0 0 420 430" fill="none" xmlns="http://www.w3.org/2000/svg">
<path d="M356.673 82.0357L174.647 192.566C174.489 192.662 174.29 192.663 174.131 192.567L108.353 153.182C108.03 152.989 108.028 152.522 108.349 152.326L356.153 1.18641C356.486 0.983192 356.913 1.22301 356.913 1.61328V81.6083C356.913 81.783 356.822 81.945 356.673 82.0357Z" fill="white"/>
<path d="M356.36 349.006L67.4618 178.509C67.3026 178.415 67.1046 178.417 66.9469 178.513L1.49277 218.513C1.17098 218.709 1.17441 219.178 1.49905 219.37L355.852 428.832C356.185 429.029 356.606 428.788 356.606 428.401V349.437C356.606 349.26 356.513 349.096 356.36 349.006Z" fill="white"/>
<ellipse cx="356.914" cy="208.881" rx="62.3029" ry="64.109" fill="white"/>
</svg>
