<svg width="124" height="38" viewBox="0 0 124 38" fill="none" xmlns="http://www.w3.org/2000/svg">
<path d="M38.336 20.04C38.2187 21.0747 37.8613 21.9867 37.264 22.776C36.6667 23.5547 35.8773 24.1627 34.896 24.6C33.9147 25.0373 32.7947 25.256 31.536 25.256C30.16 25.256 28.9493 24.9947 27.904 24.472C26.8693 23.9493 26.064 23.2187 25.488 22.28C24.912 21.3413 24.624 20.248 24.624 19C24.624 17.752 24.912 16.6587 25.488 15.72C26.064 14.7813 26.8693 14.0507 27.904 13.528C28.9493 13.0053 30.16 12.744 31.536 12.744C32.7947 12.744 33.9147 12.9627 34.896 13.4C35.8773 13.8373 36.6667 14.4453 37.264 15.224C37.8613 16.0027 38.2187 16.9147 38.336 17.96H35.296C35.1893 17.416 34.9707 16.952 34.64 16.568C34.32 16.184 33.8933 15.8907 33.36 15.688C32.8373 15.4747 32.2293 15.368 31.536 15.368C30.736 15.368 30.048 15.5173 29.472 15.816C28.896 16.104 28.4533 16.52 28.144 17.064C27.8347 17.608 27.68 18.2533 27.68 19C27.68 19.7467 27.8347 20.392 28.144 20.936C28.4533 21.48 28.896 21.9013 29.472 22.2C30.048 22.488 30.736 22.632 31.536 22.632C32.2293 22.632 32.8373 22.5307 33.36 22.328C33.8933 22.1253 34.32 21.832 34.64 21.448C34.9707 21.064 35.1893 20.5947 35.296 20.04H38.336ZM48.0761 25L47.6761 21.688L48.1081 20.44L47.6761 19.208L48.0761 15.88H51.1641L50.6041 20.44L51.1641 25H48.0761ZM48.8121 20.44C48.6521 21.4107 48.3481 22.2587 47.9001 22.984C47.4521 23.6987 46.8868 24.2587 46.2041 24.664C45.5215 25.0587 44.7535 25.256 43.9001 25.256C43.0041 25.256 42.2148 25.0533 41.5321 24.648C40.8601 24.2427 40.3321 23.6827 39.9481 22.968C39.5641 22.2427 39.3721 21.4 39.3721 20.44C39.3721 19.48 39.5641 18.6427 39.9481 17.928C40.3321 17.2027 40.8601 16.6373 41.5321 16.232C42.2148 15.8267 43.0041 15.624 43.9001 15.624C44.7535 15.624 45.5215 15.8267 46.2041 16.232C46.8868 16.6267 47.4521 17.1813 47.9001 17.896C48.3588 18.6107 48.6628 19.4587 48.8121 20.44ZM42.3801 20.44C42.3801 20.9307 42.4815 21.368 42.6841 21.752C42.8868 22.1253 43.1641 22.424 43.5161 22.648C43.8788 22.8613 44.2948 22.968 44.7641 22.968C45.2335 22.968 45.6761 22.8613 46.0921 22.648C46.5188 22.424 46.8921 22.1253 47.2121 21.752C47.5321 21.368 47.7721 20.9307 47.9321 20.44C47.7721 19.9493 47.5321 19.5173 47.2121 19.144C46.8921 18.76 46.5188 18.4613 46.0921 18.248C45.6761 18.024 45.2335 17.912 44.7641 17.912C44.2948 17.912 43.8788 18.024 43.5161 18.248C43.1641 18.4613 42.8868 18.76 42.6841 19.144C42.4815 19.5173 42.3801 19.9493 42.3801 20.44ZM51.9706 18.088V16.792L53.8586 16.104L55.1226 13.448H56.8346V15.88H60.7706V18.088H56.8346V21.096C56.8346 21.7787 56.9733 22.2587 57.2506 22.536C57.528 22.8027 58.024 22.936 58.7386 22.936C59.1866 22.936 59.5866 22.8987 59.9386 22.824C60.2906 22.7387 60.6213 22.6267 60.9306 22.488V24.744C60.6106 24.872 60.1893 24.9893 59.6666 25.096C59.1546 25.2027 58.6213 25.256 58.0666 25.256C57.096 25.256 56.296 25.1013 55.6666 24.792C55.048 24.4827 54.5893 24.0507 54.2906 23.496C54.0026 22.9307 53.8586 22.2693 53.8586 21.512V18.088H51.9706ZM70.3574 25L69.9574 21.688L70.3894 20.44L69.9574 19.208L70.3574 15.88H73.4454L72.8854 20.44L73.4454 25H70.3574ZM71.0934 20.44C70.9334 21.4107 70.6294 22.2587 70.1814 22.984C69.7334 23.6987 69.168 24.2587 68.4854 24.664C67.8027 25.0587 67.0347 25.256 66.1814 25.256C65.2854 25.256 64.496 25.0533 63.8134 24.648C63.1414 24.2427 62.6134 23.6827 62.2294 22.968C61.8454 22.2427 61.6534 21.4 61.6534 20.44C61.6534 19.48 61.8454 18.6427 62.2294 17.928C62.6134 17.2027 63.1414 16.6373 63.8134 16.232C64.496 15.8267 65.2854 15.624 66.1814 15.624C67.0347 15.624 67.8027 15.8267 68.4854 16.232C69.168 16.6267 69.7334 17.1813 70.1814 17.896C70.64 18.6107 70.944 19.4587 71.0934 20.44ZM64.6614 20.44C64.6614 20.9307 64.7627 21.368 64.9654 21.752C65.168 22.1253 65.4454 22.424 65.7974 22.648C66.16 22.8613 66.576 22.968 67.0454 22.968C67.5147 22.968 67.9574 22.8613 68.3734 22.648C68.8 22.424 69.1734 22.1253 69.4934 21.752C69.8134 21.368 70.0534 20.9307 70.2134 20.44C70.0534 19.9493 69.8134 19.5173 69.4934 19.144C69.1734 18.76 68.8 18.4613 68.3734 18.248C67.9574 18.024 67.5147 17.912 67.0454 17.912C66.576 17.912 66.16 18.024 65.7974 18.248C65.4454 18.4613 65.168 18.76 64.9654 19.144C64.7627 19.5173 64.6614 19.9493 64.6614 20.44ZM75.1319 12.68H78.0919V25H75.1319V12.68ZM82.7909 27.896C82.1509 27.896 81.5802 27.816 81.0789 27.656C80.5882 27.496 80.1082 27.256 79.6389 26.936V24.84C80.1189 25.1493 80.5669 25.368 80.9829 25.496C81.4095 25.6347 81.8735 25.704 82.3749 25.704C82.8229 25.704 83.2122 25.608 83.5429 25.416C83.8842 25.224 84.1669 24.872 84.3909 24.36L88.0389 15.88H91.1909L86.7269 25.288C86.4282 25.928 86.0709 26.44 85.6549 26.824C85.2389 27.208 84.7855 27.48 84.2949 27.64C83.8149 27.8107 83.3135 27.896 82.7909 27.896ZM83.1429 24.28L79.1909 15.88H82.4549L86.0069 24.28H83.1429ZM101.982 22.072C101.982 22.7547 101.779 23.336 101.374 23.816C100.979 24.2853 100.398 24.6427 99.63 24.888C98.862 25.1333 97.9287 25.256 96.83 25.256C95.71 25.256 94.7287 25.1173 93.886 24.84C93.0433 24.5627 92.3873 24.1733 91.918 23.672C91.4487 23.1707 91.198 22.5893 91.166 21.928H94.19C94.254 22.1947 94.4033 22.4293 94.638 22.632C94.8833 22.8347 95.198 22.9893 95.582 23.096C95.966 23.192 96.4193 23.24 96.942 23.24C97.646 23.24 98.1793 23.1653 98.542 23.016C98.9047 22.8667 99.086 22.6427 99.086 22.344C99.086 22.12 98.9527 21.9493 98.686 21.832C98.43 21.7147 97.966 21.6293 97.294 21.576L95.63 21.448C94.5847 21.3627 93.7527 21.1973 93.134 20.952C92.5153 20.696 92.0727 20.3707 91.806 19.976C91.55 19.5813 91.422 19.1387 91.422 18.648C91.422 17.976 91.63 17.4213 92.046 16.984C92.4727 16.536 93.0593 16.2 93.806 15.976C94.5527 15.7413 95.4273 15.624 96.43 15.624C97.4327 15.624 98.3233 15.7573 99.102 16.024C99.8913 16.2907 100.521 16.6587 100.99 17.128C101.47 17.5973 101.742 18.1467 101.806 18.776H98.782C98.7393 18.5627 98.622 18.3653 98.43 18.184C98.2487 18.0027 97.982 17.8587 97.63 17.752C97.2887 17.6347 96.8407 17.576 96.286 17.576C95.6567 17.576 95.1767 17.6453 94.846 17.784C94.5153 17.9227 94.35 18.1253 94.35 18.392C94.35 18.5947 94.4513 18.76 94.654 18.888C94.8567 19.0053 95.2407 19.0853 95.806 19.128L97.966 19.288C98.99 19.3733 99.79 19.5387 100.366 19.784C100.953 20.0187 101.369 20.328 101.614 20.712C101.859 21.096 101.982 21.5493 101.982 22.072ZM102.455 18.088V16.792L104.343 16.104L105.607 13.448H107.319V15.88H111.255V18.088H107.319V21.096C107.319 21.7787 107.458 22.2587 107.735 22.536C108.012 22.8027 108.508 22.936 109.223 22.936C109.671 22.936 110.071 22.8987 110.423 22.824C110.775 22.7387 111.106 22.6267 111.415 22.488V24.744C111.095 24.872 110.674 24.9893 110.151 25.096C109.639 25.2027 109.106 25.256 108.551 25.256C107.58 25.256 106.78 25.1013 106.151 24.792C105.532 24.4827 105.074 24.0507 104.775 23.496C104.487 22.9307 104.343 22.2693 104.343 21.512V18.088H102.455ZM123.013 22.072C123.013 22.7547 122.811 23.336 122.405 23.816C122.011 24.2853 121.429 24.6427 120.661 24.888C119.893 25.1333 118.96 25.256 117.861 25.256C116.741 25.256 115.76 25.1173 114.917 24.84C114.075 24.5627 113.419 24.1733 112.949 23.672C112.48 23.1707 112.229 22.5893 112.197 21.928H115.221C115.285 22.1947 115.435 22.4293 115.669 22.632C115.915 22.8347 116.229 22.9893 116.613 23.096C116.997 23.192 117.451 23.24 117.973 23.24C118.677 23.24 119.211 23.1653 119.573 23.016C119.936 22.8667 120.117 22.6427 120.117 22.344C120.117 22.12 119.984 21.9493 119.717 21.832C119.461 21.7147 118.997 21.6293 118.325 21.576L116.661 21.448C115.616 21.3627 114.784 21.1973 114.165 20.952C113.547 20.696 113.104 20.3707 112.837 19.976C112.581 19.5813 112.453 19.1387 112.453 18.648C112.453 17.976 112.661 17.4213 113.077 16.984C113.504 16.536 114.091 16.2 114.837 15.976C115.584 15.7413 116.459 15.624 117.461 15.624C118.464 15.624 119.355 15.7573 120.133 16.024C120.923 16.2907 121.552 16.6587 122.021 17.128C122.501 17.5973 122.773 18.1467 122.837 18.776H119.813C119.771 18.5627 119.653 18.3653 119.461 18.184C119.28 18.0027 119.013 17.8587 118.661 17.752C118.32 17.6347 117.872 17.576 117.317 17.576C116.688 17.576 116.208 17.6453 115.877 17.784C115.547 17.9227 115.381 18.1253 115.381 18.392C115.381 18.5947 115.483 18.76 115.685 18.888C115.888 19.0053 116.272 19.0853 116.837 19.128L118.997 19.288C120.021 19.3733 120.821 19.5387 121.397 19.784C121.984 20.0187 122.4 20.328 122.645 20.712C122.891 21.096 123.013 21.5493 123.013 22.072Z" fill="white"/>
<path d="M31.4976 7.49039L16.0095 16.8952C15.851 16.9914 15.6522 16.992 15.4931 16.8968L10.6156 13.9763C10.293 13.7831 10.2911 13.3163 10.6121 13.1204L30.9777 0.699104C31.3109 0.495888 31.7381 0.735702 31.7381 1.12597V7.06302C31.7381 7.2377 31.6469 7.39973 31.4976 7.49039Z" fill="white"/>
<path d="M31.465 30.607L6.62217 15.9456C6.46301 15.8517 6.26502 15.8532 6.10732 15.9496L1.25595 18.9143C0.934163 19.1109 0.937607 19.5795 1.26225 19.7713L30.9565 37.324C31.2898 37.521 31.7109 37.2807 31.7109 36.8935V31.0376C31.7109 30.8606 31.6174 30.6969 31.465 30.607Z" fill="white"/>
</svg>
