<svg width="417" height="125" viewBox="0 0 417 125" fill="none" xmlns="http://www.w3.org/2000/svg">
<path d="M127.008 65.12C126.656 68.224 125.584 70.96 123.792 73.328C122 75.664 119.632 77.488 116.688 78.8C113.744 80.112 110.384 80.768 106.608 80.768C102.48 80.768 98.848 79.984 95.712 78.416C92.608 76.848 90.192 74.656 88.464 71.84C86.736 69.024 85.872 65.744 85.872 62C85.872 58.256 86.736 54.976 88.464 52.16C90.192 49.344 92.608 47.152 95.712 45.584C98.848 44.016 102.48 43.232 106.608 43.232C110.384 43.232 113.744 43.888 116.688 45.2C119.632 46.512 122 48.336 123.792 50.672C125.584 53.008 126.656 55.744 127.008 58.88H117.888C117.568 57.248 116.912 55.856 115.92 54.704C114.96 53.552 113.68 52.672 112.08 52.064C110.512 51.424 108.688 51.104 106.608 51.104C104.208 51.104 102.144 51.552 100.416 52.448C98.688 53.312 97.36 54.56 96.432 56.192C95.504 57.824 95.04 59.76 95.04 62C95.04 64.24 95.504 66.176 96.432 67.808C97.36 69.44 98.688 70.704 100.416 71.6C102.144 72.464 104.208 72.896 106.608 72.896C108.688 72.896 110.512 72.592 112.08 71.984C113.68 71.376 114.96 70.496 115.92 69.344C116.912 68.192 117.568 66.784 117.888 65.12H127.008ZM156.228 80L155.028 70.064L156.324 66.32L155.028 62.624L156.228 52.64H165.492L163.812 66.32L165.492 80H156.228ZM158.436 66.32C157.956 69.232 157.044 71.776 155.7 73.952C154.356 76.096 152.66 77.776 150.612 78.992C148.564 80.176 146.26 80.768 143.7 80.768C141.012 80.768 138.644 80.16 136.596 78.944C134.58 77.728 132.996 76.048 131.844 73.904C130.692 71.728 130.116 69.2 130.116 66.32C130.116 63.44 130.692 60.928 131.844 58.784C132.996 56.608 134.58 54.912 136.596 53.696C138.644 52.48 141.012 51.872 143.7 51.872C146.26 51.872 148.564 52.48 150.612 53.696C152.66 54.88 154.356 56.544 155.7 58.688C157.076 60.832 157.988 63.376 158.436 66.32ZM139.14 66.32C139.14 67.792 139.444 69.104 140.052 70.256C140.66 71.376 141.492 72.272 142.548 72.944C143.636 73.584 144.884 73.904 146.292 73.904C147.7 73.904 149.028 73.584 150.276 72.944C151.556 72.272 152.676 71.376 153.636 70.256C154.596 69.104 155.316 67.792 155.796 66.32C155.316 64.848 154.596 63.552 153.636 62.432C152.676 61.28 151.556 60.384 150.276 59.744C149.028 59.072 147.7 58.736 146.292 58.736C144.884 58.736 143.636 59.072 142.548 59.744C141.492 60.384 140.66 61.28 140.052 62.432C139.444 63.552 139.14 64.848 139.14 66.32ZM167.912 59.264V55.376L173.576 53.312L177.368 45.344H182.504V52.64H194.312V59.264H182.504V68.288C182.504 70.336 182.92 71.776 183.752 72.608C184.584 73.408 186.072 73.808 188.216 73.808C189.56 73.808 190.76 73.696 191.816 73.472C192.872 73.216 193.864 72.88 194.792 72.464V79.232C193.832 79.616 192.568 79.968 191 80.288C189.464 80.608 187.864 80.768 186.2 80.768C183.288 80.768 180.888 80.304 179 79.376C177.144 78.448 175.768 77.152 174.872 75.488C174.008 73.792 173.576 71.808 173.576 69.536V59.264H167.912ZM223.072 80L221.872 70.064L223.168 66.32L221.872 62.624L223.072 52.64H232.336L230.656 66.32L232.336 80H223.072ZM225.28 66.32C224.8 69.232 223.888 71.776 222.544 73.952C221.2 76.096 219.504 77.776 217.456 78.992C215.408 80.176 213.104 80.768 210.544 80.768C207.856 80.768 205.488 80.16 203.44 78.944C201.424 77.728 199.84 76.048 198.688 73.904C197.536 71.728 196.96 69.2 196.96 66.32C196.96 63.44 197.536 60.928 198.688 58.784C199.84 56.608 201.424 54.912 203.44 53.696C205.488 52.48 207.856 51.872 210.544 51.872C213.104 51.872 215.408 52.48 217.456 53.696C219.504 54.88 221.2 56.544 222.544 58.688C223.92 60.832 224.832 63.376 225.28 66.32ZM205.984 66.32C205.984 67.792 206.288 69.104 206.896 70.256C207.504 71.376 208.336 72.272 209.392 72.944C210.48 73.584 211.728 73.904 213.136 73.904C214.544 73.904 215.872 73.584 217.12 72.944C218.4 72.272 219.52 71.376 220.48 70.256C221.44 69.104 222.16 67.792 222.64 66.32C222.16 64.848 221.44 63.552 220.48 62.432C219.52 61.28 218.4 60.384 217.12 59.744C215.872 59.072 214.544 58.736 213.136 58.736C211.728 58.736 210.48 59.072 209.392 59.744C208.336 60.384 207.504 61.28 206.896 62.432C206.288 63.552 205.984 64.848 205.984 66.32ZM237.396 43.04H246.276V80H237.396V43.04ZM260.373 88.688C258.453 88.688 256.741 88.448 255.237 87.968C253.765 87.488 252.325 86.768 250.917 85.808V79.52C252.357 80.448 253.701 81.104 254.949 81.488C256.229 81.904 257.621 82.112 259.125 82.112C260.469 82.112 261.637 81.824 262.629 81.248C263.653 80.672 264.501 79.616 265.173 78.08L276.117 52.64H285.573L272.181 80.864C271.285 82.784 270.213 84.32 268.965 85.472C267.717 86.624 266.357 87.44 264.885 87.92C263.445 88.432 261.941 88.688 260.373 88.688ZM261.429 77.84L249.573 52.64H259.365L270.021 77.84H261.429ZM317.946 71.216C317.946 73.264 317.338 75.008 316.122 76.448C314.938 77.856 313.194 78.928 310.89 79.664C308.586 80.4 305.786 80.768 302.49 80.768C299.13 80.768 296.186 80.352 293.658 79.52C291.13 78.688 289.162 77.52 287.754 76.016C286.346 74.512 285.594 72.768 285.498 70.784H294.57C294.762 71.584 295.21 72.288 295.914 72.896C296.65 73.504 297.594 73.968 298.746 74.288C299.898 74.576 301.258 74.72 302.826 74.72C304.938 74.72 306.538 74.496 307.626 74.048C308.714 73.6 309.258 72.928 309.258 72.032C309.258 71.36 308.858 70.848 308.058 70.496C307.29 70.144 305.898 69.888 303.882 69.728L298.89 69.344C295.754 69.088 293.258 68.592 291.402 67.856C289.546 67.088 288.218 66.112 287.418 64.928C286.65 63.744 286.266 62.416 286.266 60.944C286.266 58.928 286.89 57.264 288.138 55.952C289.418 54.608 291.178 53.6 293.418 52.928C295.658 52.224 298.282 51.872 301.29 51.872C304.298 51.872 306.97 52.272 309.306 53.072C311.674 53.872 313.562 54.976 314.97 56.384C316.41 57.792 317.226 59.44 317.418 61.328H308.346C308.218 60.688 307.866 60.096 307.29 59.552C306.746 59.008 305.946 58.576 304.89 58.256C303.866 57.904 302.522 57.728 300.858 57.728C298.97 57.728 297.53 57.936 296.538 58.352C295.546 58.768 295.05 59.376 295.05 60.176C295.05 60.784 295.354 61.28 295.962 61.664C296.57 62.016 297.722 62.256 299.418 62.384L305.898 62.864C308.97 63.12 311.37 63.616 313.098 64.352C314.858 65.056 316.106 65.984 316.842 67.136C317.578 68.288 317.946 69.648 317.946 71.216ZM319.365 59.264V55.376L325.029 53.312L328.821 45.344H333.957V52.64H345.765V59.264H333.957V68.288C333.957 70.336 334.373 71.776 335.205 72.608C336.037 73.408 337.525 73.808 339.669 73.808C341.013 73.808 342.213 73.696 343.269 73.472C344.325 73.216 345.317 72.88 346.245 72.464V79.232C345.285 79.616 344.021 79.968 342.453 80.288C340.917 80.608 339.317 80.768 337.653 80.768C334.741 80.768 332.341 80.304 330.453 79.376C328.597 78.448 327.221 77.152 326.325 75.488C325.461 73.792 325.029 71.808 325.029 69.536V59.264H319.365Z" fill="white"/>
<path d="M103.35 23.7556L50.7562 55.6917C50.5977 55.7879 50.3989 55.7885 50.2398 55.6933L31.7933 44.6482C31.4707 44.455 31.4688 43.9881 31.7899 43.7923L102.83 0.463753C103.163 0.260536 103.59 0.50035 103.59 0.890621V23.3282C103.59 23.5029 103.499 23.6649 103.35 23.7556Z" fill="white"/>
<path d="M103.255 101.202L19.5787 51.8196C19.4195 51.7257 19.2215 51.7272 19.0638 51.8236L0.709806 63.0399C0.388021 63.2366 0.391465 63.7051 0.716104 63.897L102.746 124.208C103.079 124.405 103.5 124.165 103.5 123.778V101.633C103.5 101.456 103.407 101.292 103.255 101.202Z" fill="white"/>
</svg>
